<?xml version="1.0" standalone="no"?>
<!DOCTYPE svg PUBLIC "-//W3C//DTD SVG 20010904//EN"
 "http://www.w3.org/TR/2001/REC-SVG-20010904/DTD/svg10.dtd">
<svg version="1.0" xmlns="http://www.w3.org/2000/svg"
 width="348.000000pt" height="348.000000pt" viewBox="0 0 348.000000 348.000000"
 preserveAspectRatio="xMidYMid meet">

<g transform="translate(0.000000,348.000000) scale(0.100000,-0.100000)"
fill="#000000" stroke="none">
<path d="M1320 3459 c-40 -16 -67 -47 -89 -103 -11 -28 -160 -434 -331 -903
-220 -606 -310 -864 -310 -894 0 -35 6 -48 39 -80 35 -35 44 -39 90 -39 44 0
56 5 86 33 36 33 79 146 542 1427 53 146 99 269 103 273 6 7 1636 -311 1697
-331 21 -7 17 -21 -151 -522 -457 -1359 -620 -1755 -793 -1922 -93 -90 -226
-132 -346 -108 -112 22 -176 74 -228 184 -34 73 -48 134 -57 261 l-7 97 -130
52 c-1122 456 -1379 556 -1386 545 -27 -45 -31 -312 -6 -409 38 -145 141 -293
255 -364 65 -40 1245 -574 1347 -609 84 -29 99 -31 230 -30 234 1 375 54 516
193 159 156 271 376 476 930 219 592 603 1738 603 1800 0 49 -22 91 -59 113
-23 13 -2014 418 -2051 416 -8 0 -26 -5 -40 -10z"/>
<path d="M1541 2712 c-50 -25 -74 -63 -74 -115 0 -140 198 -189 265 -66 37 66
8 146 -65 180 -52 23 -83 24 -126 1z"/>
<path d="M1950 2587 c-38 -19 -70 -74 -70 -120 0 -47 37 -102 78 -118 69 -27
610 -169 641 -169 38 0 83 24 105 56 39 56 20 148 -38 183 -37 23 -614 181
-659 181 -18 0 -43 -6 -57 -13z"/>
<path d="M1320 2154 c-76 -51 -86 -146 -22 -207 40 -38 115 -52 162 -29 136
66 84 252 -70 252 -26 0 -56 -7 -70 -16z"/>
<path d="M1707 2031 c-36 -23 -53 -48 -61 -88 -10 -44 23 -117 61 -136 54 -28
619 -207 653 -207 70 0 130 63 130 137 0 37 -33 89 -67 106 -57 29 -617 207
-652 207 -20 0 -49 -8 -64 -19z"/>
<path d="M1125 1650 c-61 -25 -96 -102 -76 -163 32 -95 167 -129 234 -59 51
53 57 116 16 173 -32 46 -122 71 -174 49z"/>
<path d="M1487 1492 c-15 -9 -37 -36 -48 -59 -17 -36 -19 -48 -9 -82 19 -73
39 -83 369 -191 177 -58 320 -100 343 -100 130 0 175 185 61 243 -58 30 -616
207 -651 207 -21 0 -50 -8 -65 -18z"/>
</g>
</svg>
